<svg width="362" height="389" xmlns="http://www.w3.org/2000/svg" xmlns:xlink="http://www.w3.org/1999/xlink" xml:space="preserve" overflow="hidden"><defs><clipPath id="clip0"><rect x="80" y="106" width="362" height="389"/></clipPath></defs><g clip-path="url(#clip0)" transform="translate(-80 -106)"><path d="M384.992 157.966C384.332 156.087 383.223 155.168 381.654 155.168 380.085 155.168 378.966 156.087 378.307 157.946L368.404 184.307 368.334 184.517C368.085 185.137 367.927 185.79 367.864 186.455 367.888 187.708 368.923 188.704 370.176 188.68 370.218 188.679 370.26 188.677 370.302 188.674 371.449 188.687 372.455 187.915 372.741 186.805L374.669 181.449 388.659 181.449 390.568 186.815C390.864 187.934 391.889 188.703 393.046 188.674 394.302 188.757 395.387 187.806 395.47 186.551 395.472 186.519 395.473 186.487 395.474 186.455 395.403 185.8 395.241 185.158 394.995 184.547ZM387.04 176.952 376.278 176.952 381.654 161.883Z" fill="#B0B3B2" transform="matrix(1 0 0 1 80.3578 106)"/><path d="M423.544 169.038 416.929 169.038C415.612 168.953 414.476 169.95 414.391 171.267 414.306 172.583 415.304 173.719 416.62 173.804 416.723 173.811 416.826 173.811 416.929 173.804L421.925 173.804 421.925 175.123C421.925 179.5 418.927 184.117 413.321 184.117 406.196 184.117 403.658 177.532 403.658 171.886 403.658 165.81 406.596 159.655 413.151 159.655 415.603 159.622 417.986 160.461 419.877 162.023 420.586 162.691 421.488 163.118 422.455 163.242 423.779 163.264 424.871 162.209 424.893 160.885 424.894 160.854 424.894 160.824 424.893 160.794 424.893 158.565 419.956 155.138 413.421 155.138 402.989 155.138 398.322 163.562 398.322 171.886 398.322 179.96 402.889 188.644 412.832 188.644 422.095 188.644 426.991 183.148 426.991 172.775 426.951 170.117 425.952 169.038 423.544 169.038Z" fill="#B0B3B2" transform="matrix(1 0 0 1 80.3578 106)"/><path d="M452.103 160.224C453.428 160.224 454.501 159.15 454.501 157.826 454.501 156.501 453.428 155.428 452.103 155.428L435.215 155.428C433.844 155.339 432.66 156.378 432.571 157.75 432.563 157.882 432.565 158.014 432.577 158.146L432.577 185.676C432.448 187.044 433.451 188.258 434.819 188.388 434.951 188.4 435.083 188.402 435.215 188.394L452.103 188.394C453.425 188.479 454.566 187.477 454.651 186.155 454.737 184.834 453.734 183.693 452.413 183.607 452.31 183.601 452.206 183.601 452.103 183.607L437.614 183.607 437.614 174.314 451.244 174.314C452.566 174.399 453.706 173.397 453.792 172.075 453.877 170.754 452.875 169.613 451.553 169.527 451.45 169.521 451.347 169.521 451.244 169.527L437.614 169.527 437.614 160.224Z" fill="#B0B3B2" transform="matrix(1 0 0 1 80.3578 106)"/><path d="M418.158 206.601C419.48 206.686 420.62 205.684 420.706 204.362 420.791 203.04 419.789 201.9 418.467 201.814 418.364 201.807 418.261 201.807 418.158 201.814L401.29 201.814C399.919 201.715 398.728 202.745 398.628 204.116 398.618 204.251 398.62 204.387 398.632 204.522L398.632 232.052C398.507 233.421 399.515 234.632 400.883 234.757 401.019 234.769 401.155 234.77 401.29 234.76L418.158 234.76C419.474 234.846 420.61 233.848 420.695 232.531 420.781 231.215 419.783 230.079 418.467 229.994 418.364 229.987 418.261 229.987 418.158 229.994L403.708 229.994 403.708 220.691 417.338 220.691C418.66 220.776 419.801 219.774 419.886 218.452 419.972 217.13 418.97 215.989 417.648 215.904 417.545 215.897 417.441 215.897 417.338 215.904L403.708 215.904 403.708 206.601Z" fill="#B0B3B2" transform="matrix(1 0 0 1 80.3578 106)"/><path d="M483.361 155.168C481.992 155.131 480.853 156.21 480.816 157.578 480.814 157.664 480.816 157.75 480.822 157.836L480.823 179.25 465.663 157.476C464.564 155.847 463.865 155.168 462.446 155.168 461.027 155.168 460.087 156.167 460.087 158.056L460.087 186.036C459.913 187.415 460.889 188.675 462.269 188.85 463.649 189.025 464.909 188.049 465.084 186.669 465.111 186.459 465.111 186.246 465.084 186.036L465.084 164.581 480.263 186.365C481.362 187.984 482.062 188.674 483.491 188.674 484.92 188.674 485.869 187.674 485.869 185.786L485.869 157.886C486.001 156.524 485.005 155.312 483.642 155.179 483.549 155.17 483.455 155.166 483.361 155.168Z" fill="#B0B3B2" transform="matrix(1 0 0 1 80.3578 106)"/><path d="M505.405 188.674C510.951 188.674 516.037 186.285 516.037 183.677 516.159 182.486 515.291 181.421 514.1 181.3 514.04 181.294 513.979 181.29 513.919 181.289 513.042 181.417 512.212 181.761 511.5 182.288 509.698 183.506 507.579 184.17 505.405 184.197 499.079 184.197 496.181 177.851 496.181 171.966 496.181 165.89 499.099 159.735 505.605 159.735 507.58 159.671 509.501 160.389 510.951 161.733 511.555 162.356 512.357 162.752 513.219 162.852 514.476 162.789 515.443 161.719 515.38 160.463 515.38 160.446 515.379 160.43 515.378 160.414 515.378 158.316 511.26 155.198 505.605 155.198 495.472 155.198 490.875 163.892 490.875 171.946 490.875 180 495.432 188.674 505.405 188.674Z" fill="#B0B3B2" transform="matrix(1 0 0 1 80.3578 106)"/><path d="M526.34 185.996 526.34 157.886C526.34 156.484 525.203 155.348 523.801 155.348 522.4 155.348 521.263 156.484 521.263 157.886L521.263 186.046C521.263 187.447 522.4 188.584 523.801 188.584 525.203 188.584 526.34 187.447 526.34 186.046Z" fill="#B0B3B2" transform="matrix(1 0 0 1 80.3578 106)"/><path d="M534.484 188.674C535.64 188.697 536.661 187.924 536.952 186.805L538.861 181.449 552.85 181.449 554.779 186.815C555.062 187.925 556.072 188.695 557.217 188.674 558.472 188.768 559.566 187.827 559.66 186.572 559.663 186.533 559.665 186.494 559.665 186.455 559.605 185.806 559.446 185.169 559.196 184.567L549.203 157.966C548.544 156.107 547.424 155.168 545.865 155.168 544.307 155.168 543.187 156.087 542.508 157.946L532.615 184.307 532.535 184.547C532.268 185.152 532.099 185.796 532.035 186.455 532.059 187.708 533.094 188.704 534.346 188.68 534.392 188.68 534.438 188.677 534.484 188.674ZM540.479 176.952 545.845 161.883 551.232 177.002Z" fill="#B0B3B2" transform="matrix(1 0 0 1 80.3578 106)"/><path d="M607.231 185.786 607.231 157.886C607.445 156.506 606.501 155.214 605.121 155 603.741 154.785 602.449 155.73 602.235 157.11 602.195 157.367 602.195 157.629 602.235 157.886L602.235 179.3 587.076 157.526C585.996 155.957 585.347 155.218 583.848 155.218 582.349 155.218 581.5 156.217 581.5 158.106L581.5 186.086C581.285 187.465 582.23 188.757 583.61 188.972 584.989 189.186 586.282 188.242 586.496 186.862 586.536 186.605 586.536 186.343 586.496 186.086L586.496 164.581 601.675 186.365C602.774 187.984 603.464 188.674 604.893 188.674 606.322 188.674 607.231 187.684 607.231 185.786Z" fill="#B0B3B2" transform="matrix(1 0 0 1 80.3578 106)"/><path d="M637.539 188.674C638.794 188.768 639.888 187.827 639.982 186.572 639.985 186.533 639.987 186.494 639.987 186.455 639.918 185.787 639.746 185.133 639.478 184.517L629.485 157.966C628.836 156.087 627.716 155.168 626.138 155.168 624.559 155.168 623.469 156.087 622.8 157.946L612.907 184.307 612.837 184.547C612.58 185.154 612.418 185.798 612.357 186.455 612.376 187.702 613.403 188.698 614.65 188.679 614.692 188.678 614.734 188.677 614.776 188.674 615.928 188.692 616.944 187.92 617.234 186.805L619.162 181.449 633.152 181.449 635.061 186.815C635.357 187.934 636.382 188.703 637.539 188.674ZM631.544 176.952 620.811 176.952 626.197 161.883Z" fill="#B0B3B2" transform="matrix(1 0 0 1 80.3578 106)"/><path d="M665.319 181.279C664.441 181.402 663.609 181.746 662.901 182.278 661.094 183.493 658.973 184.157 656.795 184.187 650.47 184.187 647.612 177.841 647.612 171.956 647.612 165.88 650.51 159.725 657.005 159.725 658.988 159.669 660.916 160.385 662.381 161.723 662.969 162.352 663.764 162.749 664.62 162.842 665.876 162.779 666.844 161.709 666.781 160.453 666.78 160.436 666.779 160.42 666.778 160.404 666.778 158.306 662.681 155.188 657.005 155.188 646.892 155.188 642.286 163.882 642.286 171.936 642.286 179.99 646.823 188.694 656.795 188.694 662.381 188.694 667.448 186.305 667.448 183.697 667.58 182.501 666.718 181.425 665.523 181.292 665.455 181.284 665.387 181.28 665.319 181.279Z" fill="#B0B3B2" transform="matrix(1 0 0 1 80.3578 106)"/><path d="M675.772 155.168C674.415 155.119 673.275 156.179 673.226 157.535 673.222 157.636 673.225 157.736 673.233 157.836L673.233 185.996C673.059 187.375 674.035 188.636 675.415 188.81 676.795 188.985 678.055 188.009 678.23 186.629 678.256 186.419 678.256 186.206 678.23 185.996L678.23 157.886C678.384 156.548 677.425 155.338 676.088 155.184 675.983 155.172 675.877 155.166 675.772 155.168Z" fill="#B0B3B2" transform="matrix(1 0 0 1 80.3578 106)"/><path d="M697.796 155.168C688.293 155.168 683.286 163.602 683.286 171.916 683.286 180.23 688.283 188.674 697.796 188.674 707.309 188.674 712.305 180.23 712.305 171.916 712.305 163.602 707.309 155.168 697.796 155.168ZM697.796 184.147C691.011 184.147 688.622 177.821 688.622 171.916 688.622 166.01 691.011 159.685 697.796 159.685 704.581 159.685 706.969 165.99 706.969 171.916 706.969 177.841 704.571 184.147 697.796 184.147Z" fill="#B0B3B2" transform="matrix(1 0 0 1 80.3578 106)"/><path d="M741.104 155.168C739.747 155.13 738.616 156.199 738.578 157.556 738.576 157.649 738.578 157.743 738.586 157.836L738.586 179.25 723.477 157.476C722.358 155.847 721.638 155.168 720.219 155.168 718.8 155.168 717.881 156.167 717.881 158.056L717.881 186.036C717.667 187.415 718.612 188.708 719.991 188.922 721.371 189.136 722.663 188.192 722.878 186.812 722.918 186.555 722.918 186.293 722.878 186.036L722.878 164.581 738.037 186.365C739.166 187.984 739.855 188.674 741.264 188.674 742.843 188.674 743.633 187.674 743.633 185.786L743.633 157.886C743.777 156.536 742.799 155.325 741.449 155.18 741.335 155.168 741.22 155.164 741.104 155.168Z" fill="#B0B3B2" transform="matrix(1 0 0 1 80.3578 106)"/><path d="M766.506 157.966C765.826 156.087 764.727 155.168 763.158 155.168 761.59 155.168 760.46 156.107 759.821 157.946L749.948 184.307 749.848 184.517C749.595 185.136 749.434 185.789 749.368 186.455 749.392 187.708 750.427 188.704 751.68 188.68 751.722 188.679 751.764 188.677 751.807 188.674 752.953 188.687 753.96 187.915 754.245 186.805L756.183 181.449 770.173 181.449 772.072 186.815C772.37 187.928 773.388 188.695 774.54 188.674 775.789 188.768 776.878 187.831 776.972 186.582 776.976 186.54 776.978 186.498 776.978 186.455 776.921 185.787 776.756 185.132 776.489 184.517ZM768.505 176.952 757.772 176.952 763.158 161.883Z" fill="#B0B3B2" transform="matrix(1 0 0 1 80.3578 106)"/><path d="M800.571 183.607 787.161 183.607 787.161 157.886C787.249 156.492 786.19 155.292 784.797 155.204 783.403 155.116 782.202 156.175 782.115 157.568 782.108 157.674 782.108 157.78 782.115 157.886L782.115 185.726C781.984 187.094 782.986 188.309 784.354 188.44 784.497 188.453 784.64 188.455 784.783 188.444L800.571 188.444C801.893 188.529 803.034 187.527 803.119 186.205 803.205 184.883 802.203 183.743 800.881 183.657 800.778 183.651 800.674 183.651 800.571 183.657Z" fill="#B0B3B2" transform="matrix(1 0 0 1 80.3578 106)"/><path d="M378.406 201.854 370.662 201.854C369.291 201.761 368.104 202.796 368.01 204.167 368.002 204.295 368.003 204.424 368.014 204.552L368.014 232.082C367.89 233.456 368.903 234.671 370.277 234.795 370.405 234.807 370.534 234.809 370.662 234.8L378.946 234.8C387.54 234.8 393.086 228.255 393.086 218.142 393.086 209.998 388.539 201.854 378.406 201.854ZM387.78 218.142C387.78 220.99 387.09 230.284 378.127 230.284L373.06 230.284 373.06 206.321 377.857 206.321C384.042 206.321 387.78 210.738 387.78 218.112Z" fill="#B0B3B2" transform="matrix(1 0 0 1 80.3578 106)"/><path d="M448.676 201.544C447.319 201.495 446.179 202.555 446.13 203.912 446.126 204.012 446.129 204.112 446.138 204.212L446.138 232.372C446.05 233.766 447.108 234.966 448.502 235.054 449.895 235.142 451.096 234.083 451.184 232.69 451.191 232.584 451.191 232.478 451.184 232.372L451.184 204.212C451.306 202.866 450.313 201.675 448.966 201.553 448.87 201.545 448.773 201.542 448.676 201.544Z" fill="#B0B3B2" transform="matrix(1 0 0 1 80.3578 106)"/><path d="M481.782 201.544C480.419 201.496 479.276 202.561 479.227 203.923 479.224 204.019 479.226 204.116 479.234 204.212L479.234 225.637 464.075 203.853C462.955 202.224 462.266 201.544 460.817 201.544 459.368 201.544 458.499 202.544 458.499 204.442L458.499 232.372C458.411 233.766 459.469 234.966 460.863 235.054 462.256 235.142 463.457 234.083 463.545 232.69 463.552 232.584 463.552 232.478 463.545 232.372L463.545 210.948 478.714 232.732C479.813 234.351 480.513 235.03 481.932 235.03 483.511 235.03 484.28 234.031 484.28 232.162L484.28 204.182C484.385 202.834 483.378 201.656 482.03 201.551 481.947 201.545 481.865 201.542 481.782 201.544Z" fill="#B0B3B2" transform="matrix(1 0 0 1 80.3578 106)"/><path d="M502.687 201.544C493.154 201.544 488.177 209.968 488.177 218.282 488.177 226.596 493.174 235.03 502.687 235.03 512.2 235.03 517.176 226.616 517.176 218.282 517.176 209.948 512.21 201.544 502.687 201.544ZM502.687 230.523C495.912 230.523 493.493 224.208 493.493 218.282 493.493 212.357 495.912 206.061 502.687 206.061 509.462 206.061 511.86 212.386 511.86 218.282 511.86 224.178 509.452 230.523 502.687 230.523Z" fill="#B0B3B2" transform="matrix(1 0 0 1 80.3578 106)"/><path d="M544.856 203.713C544.819 202.477 543.787 201.506 542.551 201.543 542.54 201.543 542.529 201.544 542.518 201.544 540.609 201.544 540.12 202.973 539.6 204.472L532.025 226.276 524.471 204.472 524.411 204.332C523.921 202.973 523.412 201.544 521.533 201.544 520.298 201.494 519.256 202.455 519.206 203.69 519.205 203.698 519.205 203.705 519.205 203.713 519.208 204.295 519.309 204.873 519.505 205.422L529.208 232.512C529.627 233.731 530.207 235.03 532.025 235.03 533.844 235.03 534.414 233.731 534.843 232.522L544.536 205.412C544.743 204.869 544.851 204.294 544.856 203.713Z" fill="#B0B3B2" transform="matrix(1 0 0 1 80.3578 106)"/><path d="M558.926 204.332C558.247 202.464 557.157 201.544 555.578 201.544 554 201.544 552.91 202.464 552.241 204.322L542.348 230.673 542.278 230.923C542.027 231.526 541.865 232.162 541.798 232.812 541.811 234.053 542.828 235.05 544.069 235.037 544.122 235.037 544.174 235.034 544.227 235.03 545.36 235.053 546.364 234.304 546.665 233.211L548.604 227.835 562.593 227.835 564.512 233.211C564.816 234.315 565.836 235.067 566.98 235.03 568.208 235.118 569.274 234.195 569.363 232.967 569.366 232.916 569.368 232.864 569.368 232.812 569.318 232.17 569.169 231.54 568.929 230.943ZM560.925 223.319 550.222 223.319 555.598 208.21Z" fill="#B0B3B2" transform="matrix(1 0 0 1 80.3578 106)"/><path d="M594.151 227.655C593.276 227.79 592.447 228.133 591.732 228.655 589.922 229.888 587.787 230.556 585.597 230.573 579.301 230.573 576.413 224.238 576.413 218.332 576.413 212.257 579.331 206.111 585.817 206.111 587.799 206.044 589.727 206.762 591.183 208.11 591.781 208.736 592.58 209.133 593.441 209.229 594.687 209.177 595.656 208.125 595.604 206.879 595.603 206.853 595.602 206.827 595.599 206.801 595.6 204.702 591.513 201.584 585.817 201.584 575.724 201.584 571.107 210.258 571.107 218.322 571.107 225.677 574.815 233.481 583.039 234.85L582.519 235.6C582.203 236.01 582.012 236.503 581.969 237.019 581.969 237.588 582.479 238.448 583.858 238.448 584.438 238.448 585.137 238.448 585.297 238.678 585.297 239.047 585.297 239.327 584.298 239.327 583.887 239.303 583.479 239.243 583.079 239.147 582.724 239.044 582.358 238.98 581.989 238.957 581.092 239.015 580.41 239.789 580.467 240.686 580.468 240.7 580.469 240.713 580.47 240.726 580.47 242.005 581.989 242.854 584.298 242.854 587.805 242.854 589.824 241.266 589.824 238.448 589.618 236.71 588.126 235.412 586.376 235.45L586.646 235.05C591.822 234.79 596.299 232.512 596.299 230.104 596.448 228.91 595.601 227.821 594.407 227.672 594.322 227.662 594.236 227.656 594.151 227.655Z" fill="#B0B3B2" transform="matrix(1 0 0 1 80.3578 106)"/><path d="M617.064 204.332C616.395 202.464 615.305 201.544 613.726 201.544 612.148 201.544 611.038 202.464 610.389 204.322L600.496 230.673 600.396 230.923C600.157 231.529 599.999 232.164 599.926 232.812 599.939 234.053 600.956 235.05 602.197 235.037 602.25 235.037 602.302 235.034 602.355 235.03 603.494 235.052 604.507 234.306 604.823 233.211L606.751 227.835 620.741 227.835 622.67 233.211C622.964 234.318 623.984 235.073 625.128 235.03 626.366 235.124 627.446 234.197 627.54 232.959 627.544 232.916 627.546 232.874 627.546 232.832 627.482 232.191 627.33 231.563 627.097 230.963ZM619.063 223.319 608.32 223.319 613.726 208.21Z" fill="#B0B3B2" transform="matrix(1 0 0 1 80.3578 106)"/><path d="M643.765 201.544C634.242 201.544 629.255 209.968 629.255 218.282 629.255 226.596 634.252 235.03 643.765 235.03 653.278 235.03 658.244 226.616 658.244 218.282 658.244 209.948 653.268 201.544 643.765 201.544ZM643.765 230.523C636.98 230.523 634.571 224.208 634.571 218.282 634.571 212.357 636.98 206.061 643.765 206.061 650.55 206.061 652.938 212.386 652.938 218.282 652.938 224.178 650.53 230.523 643.765 230.523Z" fill="#B0B3B2" transform="matrix(1 0 0 1 80.3578 106)"/><path d="M438.593 153.709C439.002 153.7 439.406 153.612 439.782 153.449L443.779 151.88 447.776 153.429C448.155 153.606 448.567 153.701 448.986 153.709 450.183 153.71 451.155 152.74 451.156 151.543 451.156 151.509 451.155 151.475 451.154 151.441 451.179 150.527 450.633 149.694 449.785 149.352L443.999 146.894C443.86 146.843 443.708 146.843 443.569 146.894L437.784 149.332C436.634 149.844 436.117 151.19 436.629 152.34 436.977 153.124 437.736 153.645 438.593 153.689Z" fill="#B0B3B2" transform="matrix(1 0 0 1 80.3578 106)"/><path d="M610.059 199.606C610.419 199.342 610.852 199.195 611.298 199.186 612.013 199.216 612.719 199.347 613.397 199.576 614.301 199.886 615.248 200.054 616.205 200.075 619.133 200.075 620.931 198.327 620.931 196.708 620.951 195.541 620.09 194.547 618.933 194.4 618.384 194.433 617.854 194.608 617.394 194.909 617.023 195.148 616.596 195.286 616.155 195.309 615.445 195.279 614.744 195.14 614.076 194.899 613.168 194.59 612.217 194.422 611.258 194.399 608.33 194.399 606.532 196.148 606.532 197.767 606.515 198.95 607.403 199.951 608.58 200.075 609.104 200.041 609.611 199.879 610.059 199.606Z" fill="#B0B3B2" transform="matrix(1 0 0 1 80.3578 106)"/><path d="M232.122 164.171C231.991 161.034 229.34 158.597 226.203 158.729 223.25 158.853 220.884 161.218 220.76 164.171L220.76 213.566 174.274 160.124 174.274 160.124C172.145 157.801 168.536 157.643 166.212 159.772 165.03 160.856 164.358 162.387 164.361 163.991L164.361 163.991 164.361 163.991 164.361 220.161C164.361 220.451 164.311 220.97 163.981 221.07 163.465 221.2 162.937 220.901 162.782 220.391L133.653 161.203 132.794 159.805C131.13 158.151 128.654 157.62 126.459 158.445 126.379 158.445 126.319 158.545 126.239 158.585 124.819 159.14 123.688 160.252 123.111 161.663L91.8236 224.837C91.5744 225.189 91.3665 225.568 91.2041 225.967 91.2041 226.067 91.2041 226.167 91.1241 226.266L91.0642 226.386 91.0642 226.386C90.1319 229.323 91.6101 232.484 94.4617 233.651 95.1648 233.929 95.9141 234.071 96.6701 234.071L127.648 234.071C129.986 234.083 132.094 232.664 132.964 230.493 133.543 229.106 133.543 227.544 132.964 226.157 132.367 224.747 131.235 223.633 129.816 223.059 129.046 222.753 128.214 222.629 127.388 222.699L105.564 222.699 128.467 176.393 153.589 227.336C154.113 228.45 154.785 229.489 155.588 230.423 157.785 232.819 160.871 234.206 164.121 234.261 170.523 234.261 175.716 229.08 175.733 222.679L175.733 179.041 221.44 231.573C223.085 234.299 226.629 235.175 229.356 233.53 231.091 232.483 232.149 230.601 232.142 228.575Z" fill="#B0B3B2" transform="matrix(1 0 0 1 80.3578 106)"/><path d="M254.566 164.171C254.434 161.034 251.784 158.597 248.647 158.729 245.694 158.853 243.328 161.218 243.204 164.171L243.204 229.314 243.204 229.314C243.073 232.452 245.509 235.102 248.647 235.233 251.784 235.365 254.434 232.928 254.566 229.791 254.573 229.632 254.573 229.473 254.566 229.314L254.566 229.314Z" fill="#B0B3B2" transform="matrix(1 0 0 1 80.3578 106)"/><path d="M270.435 172.645C274.336 172.656 277.508 169.502 277.519 165.6 277.53 161.699 274.376 158.527 270.474 158.516 266.573 158.504 263.401 161.659 263.39 165.56 263.39 165.57 263.39 165.58 263.39 165.59 263.384 169.481 266.534 172.64 270.425 172.645 270.428 172.645 270.431 172.645 270.435 172.645Z" fill="#B0B3B2" transform="matrix(1 0 0 1 80.3578 106)"/><path d="M311.775 122.402C272.063 52.089 182.871 27.2823 112.558 66.9941 53.2107 100.513 24.895 170.591 44.298 235.929 45.3851 239.537 48.7045 242.008 52.4721 242.015 53.291 242.019 54.106 241.901 54.8903 241.665 59.3484 240.294 61.8865 235.605 60.5962 231.123 40.3251 162.698 79.3615 90.7959 147.786 70.5248 205.462 53.4383 267.299 78.4099 296.935 130.755 298.374 133.294 301.015 134.917 303.93 135.052L304.38 135.052C305.814 135.062 307.225 134.69 308.467 133.973 310.486 132.884 311.968 131.012 312.564 128.797 313.141 126.643 312.858 124.35 311.775 122.402Z" fill="#2ED9C3" transform="matrix(1 0 0 1 80.3578 106)"/><path d="M324.915 153.589C323.857 150.182 320.793 147.792 317.231 147.593L316.721 147.593C315.933 147.593 315.148 147.708 314.393 147.933 309.901 149.228 307.31 153.919 308.605 158.41 308.612 158.435 308.62 158.46 308.627 158.485 326.919 221.326 295.324 287.916 235.08 313.493 219.129 320.303 201.96 323.799 184.617 323.766L184.617 323.766C182.518 323.766 180.39 323.716 178.281 323.616 134.215 321.6 94.2564 297.14 72.4177 258.813 70.9893 256.266 68.3409 254.643 65.4227 254.526L65.033 254.526C63.8246 254.53 62.6302 254.785 61.5255 255.276 61.273 255.379 61.0291 255.503 60.7961 255.645 56.7293 257.978 55.3096 263.157 57.6184 267.237 82.3211 310.616 127.543 338.297 177.412 340.564 179.85 340.684 182.282 340.744 184.706 340.744 265.513 340.584 330.891 274.947 330.73 194.14 330.703 180.417 328.746 166.766 324.915 153.589Z" fill="#FF5869" transform="matrix(1 0 0 1 80.3578 106)"/></g></svg>